PathFileType	4	(X/Y/Z)	C:\Users\Basilio\Documents\Thesis Gigler\squatting_fais\c3dfiles\040\SJ_pre1\markers_experimental.trc
DataRate	CameraRate	NumFrames	NumMarkers	Units	OrigDataRate	OrigDataStartFrame	OrigNumFrames
200.000000	200.000000	4	62	mm	200.000000	1027	1174
Frame#	Time	FHD			LBHD			RBHD			C7			T10			CLAV			LSHO			LUUPA			LMUPA			LDUPA			LLEP			LMEP			LRAD			LUL			LRFIN			RSHO			RUPA1			RMUPA			RDUPA			RLEP			RMEP			RRAD			RUL			RUFIN			LASI			RASI			USACR			LSACR			RSACR			LTHI1			LTHI2			LTHI3			LTHI4			LLFC			LMFC			LTIB1			LTIB2			LTIB3			LTIB4			LLMAL			LMMAL			LHEE			LMT1			LMT2			LMT5			RTHI			RTHI2			RTHI3			RTHI4			RLFC			RMFC			RTIB1			RTIB2			RTIB3			RTIB4			RLMAL			RMMAL			RHEE			RMT1			RMT2			RMT5			*61			
		X1	Y1	Z1	X2	Y2	Z2	X3	Y3	Z3	X4	Y4	Z4	X5	Y5	Z5	X6	Y6	Z6	X7	Y7	Z7	X8	Y8	Z8	X9	Y9	Z9	X10	Y10	Z10	X11	Y11	Z11	X12	Y12	Z12	X13	Y13	Z13	X14	Y14	Z14	X15	Y15	Z15	X16	Y16	Z16	X17	Y17	Z17	X18	Y18	Z18	X19	Y19	Z19	X20	Y20	Z20	X21	Y21	Z21	X22	Y22	Z22	X23	Y23	Z23	X24	Y24	Z24	X25	Y25	Z25	X26	Y26	Z26	X27	Y27	Z27	X28	Y28	Z28	X29	Y29	Z29	X30	Y30	Z30	X31	Y31	Z31	X32	Y32	Z32	X33	Y33	Z33	X34	Y34	Z34	X35	Y35	Z35	X36	Y36	Z36	X37	Y37	Z37	X38	Y38	Z38	X39	Y39	Z39	X40	Y40	Z40	X41	Y41	Z41	X42	Y42	Z42	X43	Y43	Z43	X44	Y44	Z44	X45	Y45	Z45	X46	Y46	Z46	X47	Y47	Z47	X48	Y48	Z48	X49	Y49	Z49	X50	Y50	Z50	X51	Y51	Z51	X52	Y52	Z52	X53	Y53	Z53	X54	Y54	Z54	X55	Y55	Z55	X56	Y56	Z56	X57	Y57	Z57	X58	Y58	Z58	X59	Y59	Z59	X60	Y60	Z60	X61	Y61	Z61	X62	Y62	Z62	

1028	5.135	-239.0272521972657	1754.595458984375	-857.6680908203127	-365.0427246093751	1704.360473632813	-897.5578613281252	-415.4977111816407	1665.933715820313	-765.2714233398439	-423.0004272460939	1550.779418945313	-817.5576171875002	-474.6983642578126	1229.440185546875	-819.3645629882815	-302.8626098632813	1469.23046875	-811.1558837890627	-344.4245910644532	1540.36962890625	-980.4594726562502	-446.099822998047	1455.223022460938	-1136.660400390625	-431.0069580078126	1407.741943359375	-1145.633666992188	-477.9453125000001	1414.6953125	-1183.860473632813	-517.9366455078126	1376.158081054688	-1225.600708007813	-572.5533447265626	1362.952270507813	-1172.758666992188	-475.2809143066407	1110.492797851563	-1101.109375	-438.6878967285157	1098.575927734375	-1165.800659179688	-418.6386718750001	1110.583740234375	-1065.116577148438	-357.6250305175782	1507.036254882813	-640.0999755859376	-493.1483154296876	1424.509033203125	-513.7556152343751	-472.2354125976564	1386.418823242188	-490.4998474121095	-527.7254028320314	1384.009765625	-468.3244628906251	-548.1243896484376	1330.15478515625	-423.525848388672	-592.4871826171876	1293.815185546875	-488.6553039550782	-337.1743164062501	1186.84619140625	-553.9992065429689	-365.3948669433594	1131.150756835938	-508.0855407714845	-318.0861206054688	1115.619750976563	-614.2473144531251	-321.9184875488282	1046.829345703125	-927.0703125000002	-327.7739257812501	1041.925659179688	-695.4710693359376	-500.6966247558595	1098.825317382813	-813.7244262695315	-509.898895263672	1070.353515625	-841.1485595703127	-515.3542480468751	1069.882690429688	-786.7504882812502	-453.7316284179689	809.5614013671877	-1027.407958984375	-415.0874938964845	740.0982666015626	-1056.197021484375	-368.6059875488282	745.6749877929689	-1059.894165039063	-434.167938232422	683.4033203125001	-1051.640747070313	-406.6556396484376	556.2730102539064	-1076.957885742188	-395.2352600097657	504.4937133789064	-954.9578857421877	-358.8547363281251	332.2486267089844	-1099.187744140625	-432.8171386718751	300.7109069824219	-1141.294677734375	-390.0363159179689	292.6251220703126	-1132.354858398438	-372.8316955566407	209.1604766845704	-1120.793701171875	-426.7164611816407	112.1865921020508	-1155.300537109375	-390.1262512207032	117.9181747436524	-1072.685791015625	-463.6137084960939	35.87313461303712	-1116.994384765625	-256.0950012207032	110.4831466674805	-1109.533569335938	-259.1197814941407	111.8387145996094	-1156.188232421875	-301.7839660644532	77.85511016845705	-1202.181030273438	-386.7561340332032	786.7980957031252	-612.0160522460939	-348.7260131835938	730.9739379882814	-609.3133544921876	-316.2809753417969	734.6833496093751	-614.4293823242189	-374.1997375488282	652.6478881835939	-617.8771972656251	-358.7231445312501	519.0882568359376	-614.9270629882814	-353.9416809082032	501.0776367187501	-747.0111694335939	-328.8606262207032	326.2659301757813	-624.5073852539064	-412.5808715820314	262.8564758300782	-597.0821533203126	-368.7535705566407	251.9893646240235	-606.7050170898439	-358.2581787109376	201.2806091308594	-635.0820922851564	-427.6899414062501	98.63154602050784	-606.1474609375001	-400.2655029296876	104.4328994750977	-694.1259155273439	-483.8312988281251	45.45286560058594	-667.7575683593751	-261.8313598632813	57.68378067016603	-640.6632080078126	-273.3353881835938	62.52328872680665	-602.3208618164064	-320.0304870605469	36.32515716552735	-556.0512084960939	nan	nan	nan	
1029	5.14	-239.029281616211	1754.85693359375	-856.6821289062502	-364.8154907226563	1704.47998046875	-896.3088378906252	-415.1613159179689	1666.240356445313	-764.0462036132814	-422.6618957519532	1551.103393554688	-816.148620605469	-474.8631896972657	1229.799194335938	-817.9385375976565	-302.6445617675782	1469.2861328125	-809.9837646484377	-344.8954467773438	1540.65283203125	-979.1549072265627	-446.6410522460939	1455.548461914063	-1135.211303710938	-431.4123840332032	1408.199829101563	-1144.281005859375	-478.5956115722657	1415.018432617188	-1182.299194335938	-518.6849975585939	1376.661743164063	-1224.103881835938	-572.8748168945314	1362.99853515625	-1171.139038085938	-474.808074951172	1109.872924804688	-1102.683227539063	-438.7539367675782	1098.4599609375	-1167.66064453125	-417.8184509277345	1109.592041015625	-1067.004638671875	-356.9184265136719	1507.136352539063	-638.9295043945314	-493.5435180664064	1423.501586914063	-513.3641357421876	-472.4237365722657	1385.361206054688	-490.038055419922	-527.9569091796876	1382.891967773438	-467.7941894531251	-548.3601074218751	1328.81005859375	-423.4996643066407	-591.8498535156251	1292.451538085938	-488.7834777832032	-335.1258850097657	1185.52001953125	-550.4872436523439	-364.5682983398438	1129.906616210938	-505.2492980957032	-316.3189392089844	1114.387573242188	-610.7563476562501	-322.2276916503907	1047.420043945313	-926.2741699218752	-327.6834411621094	1041.934692382813	-694.6845092773439	-500.8642883300782	1098.931274414063	-812.6861572265627	-511.2960815429689	1070.88037109375	-840.364929199219	-515.3793945312501	1070.229248046875	-785.424499511719	-453.6475219726564	810.1001586914065	-1026.665649414063	-415.0065002441407	740.5809936523439	-1055.18212890625	-368.6496276855469	746.4873657226564	-1059.15673828125	-434.299041748047	683.9997558593751	-1051.031494140625	-406.9087219238282	556.9425048828126	-1076.386108398438	-395.9964599609376	504.8812255859376	-954.672790527344	-358.7194519042969	332.6124877929688	-1098.851196289063	-433.1022338867189	301.3508605957032	-1140.545532226563	-390.1828613281251	293.0653381347657	-1132.008666992188	-372.9708862304688	209.6439819335938	-1120.21044921875	-426.8325805664064	112.6871795654297	-1154.707885742188	-389.8371887207032	118.2655868530274	-1072.114868164063	-463.9494934082032	36.24327468872071	-1116.236083984375	-255.5992736816407	109.1721954345703	-1109.178466796875	-258.6825256347657	110.9265747070313	-1155.735717773438	-301.8884277343751	77.20647430419923	-1201.71435546875	-386.6983337402345	786.7619628906252	-611.6514892578126	-348.6159667968751	730.9117431640626	-609.1415405273439	-316.1467895507813	734.5854492187501	-614.1864624023439	-374.1517639160157	652.6500854492189	-617.5938720703126	-358.6969299316407	519.0462646484376	-614.7678222656251	-354.2053527832032	501.1293334960939	-746.9574584960939	-328.8529357910157	326.1327819824219	-624.6600341796876	-412.3125610351564	262.7061767578126	-596.8811035156251	-368.6076965332032	251.9550170898438	-606.7617797851564	-358.2563171386719	201.2419586181641	-635.1631469726564	-427.6082458496095	98.63679504394534	-606.1677246093751	-400.4223632812501	104.4247436523438	-694.1551513671876	-483.808074951172	45.46446228027344	-667.7355957031251	-261.7886047363282	57.64231109619142	-640.7164306640626	-273.3497619628907	62.49277496337892	-602.3696899414064	-320.5661926269532	35.96337127685548	-556.7009277343751	nan	nan	nan	
1030	5.145	-238.6871032714844	1755.249877929688	-855.6375732421877	-364.8628845214844	1704.821533203125	-895.2910766601565	-414.880340576172	1666.252685546875	-762.9536132812501	-422.5110778808595	1551.52392578125	-814.8220214843752	-474.7692260742189	1230.370239257813	-816.4216308593752	-302.4777526855469	1469.529541015625	-808.8403930664065	-344.9094848632813	1541.032836914063	-978.089050292969	-447.1021423339845	1455.906127929688	-1133.719116210938	-431.8312072753907	1408.598754882813	-1143.057250976563	-479.123748779297	1415.496459960938	-1180.937255859375	-519.2497558593751	1377.144897460938	-1222.553466796875	-573.0225219726564	1362.797607421875	-1169.452880859375	-473.3121337890626	1108.982055664063	-1104.050903320313	-438.2442016601564	1098.455444335938	-1169.6279296875	-416.9899291992189	1108.605834960938	-1069.09619140625	-356.3143310546876	1507.526733398438	-637.5446777343751	-493.3666381835939	1422.575073242188	-512.5572509765626	-472.4461059570314	1384.436279296875	-489.4196777343751	-527.9935302734376	1381.627563476563	-467.4933166503907	-548.4354858398439	1327.52587890625	-423.4493713378907	-591.0922851562501	1290.9736328125	-489.1062316894532	-333.3192749023438	1184.287841796875	-547.0697631835939	-363.6669006347657	1128.482543945313	-502.6137695312501	-314.0281677246094	1112.794799804688	-607.5923461914064	-322.5806274414063	1047.963012695313	-925.4642333984377	-327.7904968261719	1041.904052734375	-693.7935180664064	-500.997039794922	1099.166259765625	-811.4038085937502	-510.378143310547	1071.102416992188	-838.9749755859377	-515.8398437500001	1070.434692382813	-784.5354003906252	-453.4942932128907	810.6804199218752	-1026.12890625	-415.0769958496095	741.3915405273439	-1054.899780273438	-368.4670104980469	747.2647705078126	-1058.6923828125	-433.8121948242189	684.2592163085939	-1050.57861328125	-407.0357971191407	557.6486206054689	-1075.849487304688	-395.2167053222657	505.8514709472657	-953.6570434570315	-358.4644775390626	333.2605590820313	-1098.479125976563	-433.2727355957032	302.0244445800782	-1139.730590820313	-390.1753540039064	293.9671936035157	-1131.658081054688	-372.9549560546876	210.4373779296876	-1119.754028320313	-426.9519653320314	113.4030914306641	-1153.951904296875	-389.4562072753907	118.1984252929688	-1071.653076171875	-464.6069641113282	36.01007080078126	-1115.543823242188	-255.1534881591797	107.977035522461	-1108.797485351563	-258.3131713867188	109.6132888793946	-1155.162353515625	-301.9027404785157	76.47618103027345	-1201.28076171875	-386.6239013671876	786.6865844726565	-611.2643432617189	-348.5811767578126	730.8992919921876	-608.9213867187501	-316.0570678710938	734.5239257812501	-613.8918457031251	-374.1463928222657	652.6825561523439	-617.3118286132814	-358.6992187500001	519.0060424804689	-614.6511230468751	-354.5279541015626	501.1612243652345	-746.9076538085939	-328.8801269531251	326.0577697753907	-625.0326538085939	-412.010467529297	262.5824584960938	-596.7421264648439	-368.4387817382813	251.8471374511719	-606.7775268554689	-358.2512207031251	201.2536010742188	-635.2582397460939	-427.6144104003907	98.6335372924805	-606.1558227539064	-400.4013977050782	104.3958282470703	-694.1566162109376	-483.8081970214845	45.44013595581055	-667.7089843750001	-261.6985168457032	57.42440032958986	-640.7108154296876	-273.3550109863282	62.42390441894533	-602.3765869140626	-320.5069885253907	35.93204498291016	-556.6819458007814	nan	nan	nan	
1031	5.15	-238.8133850097657	1755.412719726563	-854.6302490234377	-364.7285461425782	1705.188232421875	-894.1224365234377	-414.9227294921876	1666.947631835938	-761.6906127929689	-422.0912170410157	1551.843994140625	-813.463562011719	-475.0171813964845	1230.715454101563	-815.0424804687502	-302.2130737304688	1469.529052734375	-807.9290161132815	-345.1376647949219	1541.368774414063	-976.821960449219	-447.5987243652345	1456.095458984375	-1132.3681640625	-431.8503723144532	1408.868530273438	-1141.966430664063	-479.5687561035157	1415.543334960938	-1179.519775390625	-519.8363647460939	1377.420288085938	-1221.149169921875	-573.2109985351564	1362.590698242188	-1167.635986328125	-472.9606018066407	1108.261840820313	-1105.60009765625	-438.021697998047	1098.296508789063	-1171.277709960938	-416.2798156738282	1107.628540039063	-1071.085815429688	-355.9538269042969	1507.755737304688	-636.2799682617189	-493.1413574218751	1421.621337890625	-511.9312744140626	-472.3759765625001	1383.605712890625	-488.8547668457032	-527.9124755859376	1380.3515625	-467.2303466796876	-548.5517578125001	1326.090209960938	-423.5406188964845	-590.3558349609376	1289.44287109375	-489.4062500000001	-331.2359619140626	1182.7412109375	-543.5734252929689	-362.7004394531251	1126.991577148438	-500.087615966797	-311.6228027343751	1111.59765625	-604.7100830078126	-322.9607849121094	1048.597778320313	-924.8342285156252	-328.0607604980469	1041.940673828125	-692.8007202148439	-501.1619262695314	1099.456909179688	-810.4641723632815	-510.7405395507814	1071.571166992188	-837.8909301757815	-515.3095703125001	1070.657348632813	-783.2933349609377	-453.4587402343751	811.455993652344	-1025.628540039063	-414.8596801757814	741.9443359375001	-1054.042602539063	-368.1548767089844	747.8357543945314	-1058.06005859375	-433.540496826172	684.9192504882814	-1050.029907226563	-406.7576904296876	557.6771240234376	-1075.295288085938	-395.1225585937501	506.4084777832032	-953.2398071289065	-358.7699584960938	334.0191345214844	-1098.12548828125	-432.6234130859376	303.2389831542969	-1138.920166015625	-389.7030029296876	295.0368347167969	-1130.8818359375	-372.7051696777344	211.1451416015626	-1119.181396484375	-426.9515686035157	113.8049545288086	-1153.210815429688	-389.2411499023439	118.7369689941407	-1071.062255859375	-464.521209716797	37.06023025512696	-1114.702758789063	-254.9904327392579	106.8240127563477	-1107.9990234375	-258.0663452148438	108.5637512207032	-1155.018676757813	-301.6694946289063	75.35710906982423	-1200.462646484375	-386.5903625488282	786.8079223632815	-610.9440307617189	-348.4899902343751	730.9395141601564	-608.6767578125001	-316.0260009765626	734.5191040039064	-613.9047241210939	-374.2294311523438	652.7316894531251	-617.1528320312501	-358.7888488769532	518.9733886718751	-614.5900878906251	-355.1611633300782	501.314178466797	-746.7854003906251	-328.9144897460938	326.1235961914063	-625.2384033203126	-411.7659912109376	262.5796203613282	-596.5353393554689	-368.2919006347657	251.8180084228516	-606.8383178710939	-358.3216857910157	201.305892944336	-635.4151000976564	-427.4930725097657	98.34391784667972	-605.9309082031251	-400.4513549804689	104.3341369628907	-694.1704711914064	-483.8038330078126	45.46718978881837	-667.7235717773439	-261.6343994140626	57.39776992797853	-640.7627563476564	-273.3583984375001	62.39179611206056	-602.4202270507814	-320.4024963378907	35.90353775024415	-556.6495361328126	nan	nan	nan	
